<svg preserveAspectRatio="none" width="100%" height="100%" overflow="visible" style="display: block;" viewBox="0 0 766.251 545.536" fill="none" xmlns="http://www.w3.org/2000/svg">
<path id="SYMBOL_CRITERION" d="M198.203 185.63L381.138 2.69576C382.864 0.969693 385.205 0 387.646 0H757.029C765.229 0 769.335 9.91398 763.537 15.7121L593.618 185.63C591.892 187.356 589.551 188.326 587.11 188.326H372.07C369.629 188.326 367.288 189.296 365.562 191.022L272.106 284.477C266.308 290.276 270.415 300.189 278.615 300.189H342.831C345.284 300.189 347.635 301.168 349.363 302.909L574.641 529.848C580.406 535.656 576.292 545.536 568.109 545.536H329.965C327.512 545.536 325.161 544.557 323.433 542.816L85.2814 302.909C83.5534 301.168 81.2021 300.189 78.7494 300.189H9.22239C1.02255 300.189 -3.08393 290.275 2.71423 284.477L96.1697 191.022C97.8958 189.296 100.237 188.326 102.678 188.326H191.694C194.135 188.326 196.477 187.356 198.203 185.63Z" fill="var(--fill-0, #132E21)"/>
</svg>
