<svg preserveAspectRatio="none" width="100%" height="100%" overflow="visible" style="display: block;" viewBox="0 0 765.498 545" fill="none" xmlns="http://www.w3.org/2000/svg">
<path id="SYMBOL_CRITERION" d="M198.008 185.448L380.763 2.69311C382.488 0.968741 384.827 0 387.265 0H756.285C764.477 0 768.579 9.90424 762.787 15.6967L593.035 185.448C591.311 187.172 588.972 188.141 586.533 188.141H371.705C369.266 188.141 366.927 189.11 365.203 190.834L271.839 284.198C266.047 289.99 270.149 299.895 278.341 299.895H342.494C344.945 299.895 347.294 300.873 349.02 302.612L574.076 529.327C579.836 535.129 575.726 545 567.551 545H329.641C327.19 545 324.841 544.022 323.115 542.283L85.1976 302.612C83.4713 300.873 81.1223 299.895 78.672 299.895H9.21333C1.02155 299.895 -3.08091 289.99 2.71156 284.198L96.0752 190.834C97.7996 189.11 100.138 188.141 102.577 188.141H191.506C193.945 188.141 196.283 187.172 198.008 185.448Z" fill="var(--fill-0, #132E21)"/>
</svg>
